{
    "asset" : {
        "generator" : "Khronos glTF Blender I/O v3.4.50",
        "version" : "2.0"
    },
    "scene" : 0,
    "scenes" : [
        {
            "name" : "Scene",
            "nodes" : [
                0
            ]
        }
    ],
    "nodes" : [
        {
            "mesh" : 0,
            "name" : "2Story_Center_Base"
        }
    ],
    "materials" : [
        {
            "doubleSided" : true,
            "name" : "Texture",
            "pbrMetallicRoughness" : {}
        }
    ],
    "meshes" : [
        {
            "name" : "Cube.060",
            "primitives" : [
                {
                    "attributes" : {
                        "POSITION" : 0,
                        "TEXCOORD_0" : 1,
                        "NORMAL" : 2
                    },
                    "indices" : 3,
                    "material" : 0
                }
            ]
        }
    ],
    "accessors" : [
        {
            "bufferView" : 0,
            "componentType" : 5126,
            "count" : 3760,
            "max" : [
                1.2105745077133179,
                2.599774122238159,
                1.4212028980255127
            ],
            "min" : [
                -1.2105745077133179,
                -0.004311603959649801,
                -1.0773022174835205
            ],
            "type" : "VEC3"
        },
        {
            "bufferView" : 1,
            "componentType" : 5126,
            "count" : 3760,
            "type" : "VEC2"
        },
        {
            "bufferView" : 2,
            "componentType" : 5126,
            "count" : 3760,
            "type" : "VEC3"
        },
        {
            "bufferView" : 3,
            "componentType" : 5123,
            "count" : 5874,
            "type" : "SCALAR"
        }
    ],
    "bufferViews" : [
        {
            "buffer" : 0,
            "byteLength" : 45120,
            "byteOffset" : 0,
            "target" : 34962
        },
        {
            "buffer" : 0,
            "byteLength" : 30080,
            "byteOffset" : 45120,
            "target" : 34962
        },
        {
            "buffer" : 0,
            "byteLength" : 45120,
            "byteOffset" : 75200,
            "target" : 34962
        },
        {
            "buffer" : 0,
            "byteLength" : 11748,
            "byteOffset" : 120320,
            "target" : 34963
        }
    ],
    "buffers" : [
        {
            "byteLength" : 132068,
            "uri" : "data:application/octet-stream;base64,"
        }
    ]
}
